<svg width="46" height="46" viewBox="0 0 46 46" fill="none" xmlns="http://www.w3.org/2000/svg">
<path d="M6.61795 24.8251L13.8482 16.0403C14.586 15.0943 14.9549 14.6213 15.1483 14.0908C15.3193 13.6214 15.3901 13.1216 15.3561 12.6233C15.3176 12.0602 15.0944 11.5038 14.6481 10.3911L12.9455 6.14663C12.285 4.49994 11.9547 3.67659 11.385 3.13691C10.883 2.66136 10.2539 2.3406 9.57333 2.21318C8.80102 2.06856 7.93832 2.28365 6.2129 2.71379L1.5 3.88889C1.5 27.7778 18.2683 44.5 42.2249 44.5L43.4026 39.7996C43.834 38.0789 44.0496 37.2187 43.9047 36.4485C43.7768 35.77 43.4553 35.1425 42.9783 34.642C42.4372 34.0737 41.6114 33.7445 39.9601 33.0859L36.1619 31.5706C34.8889 31.063 34.2524 30.809 33.6178 30.7897C33.0568 30.7725 32.4998 30.8864 31.991 31.1225C31.4153 31.3898 30.9307 31.873 29.9612 32.8398L22.6468 40.1362M25.4551 11.0556C27.7951 11.5108 29.9454 12.652 31.6312 14.333C33.3169 16.014 34.4613 18.1583 34.9177 20.4917M25.4551 1.5C30.3165 2.03855 34.8496 4.20941 38.3105 7.65619C41.7712 11.103 43.9538 15.6207 44.5 20.4678" stroke="#8DCB04" stroke-width="3" stroke-linecap="round" stroke-linejoin="round"/>
</svg>
