<svg width="64" height="58" viewBox="0 0 64 58" fill="none" xmlns="http://www.w3.org/2000/svg">
<path d="M23.4473 0.00011852C17.9491 -0.0287803 12.5964 5.2308 15.04 11.7619H5.81818C4.2751 11.7619 2.79523 12.3709 1.70411 13.4548C0.612985 14.5387 0 16.0088 0 17.5417V23.3214C0 24.0879 0.306493 24.8229 0.852053 25.3649C1.39761 25.9069 2.13755 26.2113 2.90909 26.2113H29.0909V17.5417H34.9091V26.2113H61.0909C61.8624 26.2113 62.6024 25.9069 63.1479 25.3649C63.6935 24.8229 64 24.0879 64 23.3214V17.5417C64 16.0088 63.387 14.5387 62.2959 13.4548C61.2048 12.3709 59.7249 11.7619 58.1818 11.7619H48.96C52.3636 2.31202 39.5636 -4.3636 33.6582 3.78586L32 5.98217L30.3418 3.72806C28.5091 1.15607 25.9782 0.0290173 23.4473 0.00011852ZM23.2727 5.98217C25.8618 5.98217 27.1709 9.10324 25.3382 10.9239C23.5055 12.7445 20.3636 11.444 20.3636 8.87205C20.3636 8.10561 20.6701 7.37055 21.2157 6.8286C21.7613 6.28664 22.5012 5.98217 23.2727 5.98217ZM40.7273 5.98217C43.3164 5.98217 44.6255 9.10324 42.7927 10.9239C40.96 12.7445 37.8182 11.444 37.8182 8.87205C37.8182 8.10561 38.1247 7.37055 38.6702 6.8286C39.2158 6.28664 39.9557 5.98217 40.7273 5.98217ZM2.90909 29.1012V52.2202C2.90909 53.7531 3.52208 55.2232 4.6132 56.3071C5.70432 57.3911 7.1842 58 8.72727 58H55.2727C56.8158 58 58.2957 57.3911 59.3868 56.3071C60.4779 55.2232 61.0909 53.7531 61.0909 52.2202V29.1012H34.9091V52.2202H29.0909V29.1012H2.90909Z" fill="#8DCB04"/>
</svg>
