<svg width="393" height="358" viewBox="0 0 393 358" fill="none" xmlns="http://www.w3.org/2000/svg">
<path d="M368.571 247.296C370.422 238.27 370.961 229.602 370.118 222.45C369.751 219.413 369.627 216.09 369.747 212.558C370.026 207.187 369.671 202.342 368.708 198.361C368.679 196.098 368.399 194.093 367.883 192.458C365.542 182.579 362.742 173.41 359.502 165.017L359.181 164.565L358.796 164.041C353.439 150.099 347.376 137.455 340.646 126.195C334.114 114.934 326.987 104.943 319.307 96.2808C319.06 95.9948 318.755 95.8367 318.476 95.6136C318.335 95.3573 318.218 95.0173 318.065 94.7758L317.943 94.615L315.437 91.9052C314.162 90.5173 312.883 89.1461 311.58 87.8044L310.834 87.0527C300.869 76.9298 290.183 68.68 278.849 62.3602C269.011 57.0099 258.849 52.8141 248.444 49.4531C230.755 43.7717 212.816 39.0313 193.844 38.1535C183.977 37.6888 173.861 38.3277 163.585 39.9147C150.853 41.9257 137.827 45.4958 124.57 50.6074C124.034 51.0108 123.538 51.0074 123.189 50.598C122.788 50.4851 122.226 51.3202 121.836 50.9758C121.415 52.2839 120.936 52.0949 120.527 52.1966C119.064 52.5613 117.381 54.2188 116.078 53.5812C115.655 53.5706 115.124 54.2699 114.734 53.9255C114.675 54.1655 114.582 54.3952 114.47 54.5769C114.358 54.7587 114.234 54.8817 114.118 54.926L104.955 59.1198C104.743 59.1409 104.548 59.086 104.378 58.9573C104.067 59.2492 103.748 59.6829 103.485 59.4284C102.542 60.8606 101.697 60.7311 100.848 61.1245C95.8605 63.6939 90.8536 66.4386 85.8089 69.5338L85.7102 69.6143C85.4611 69.7971 85.2073 70.0507 84.9558 70.2689C84.4249 70.5348 83.8892 70.7633 83.3606 71.048L82.9964 71.2345C76.601 75.0173 70.1412 79.575 63.6553 84.8803C57.792 89.858 52.1393 96.0868 46.6725 105.384C41.6289 113.987 38.2265 123.377 36.7584 134.377C36.69 134.864 36.6333 135.335 36.5719 135.824C36.3544 137.766 36.1978 139.676 36.1031 141.543C36.0531 142.612 36.0054 143.7 35.9882 144.815C35.8658 145.25 35.7575 145.635 35.9241 145.88C35.8818 146.031 35.8394 146.182 35.797 146.332C35.7546 146.483 35.7192 146.744 35.6768 146.949C35.6703 149.674 35.779 152.395 35.6527 155.14C34.8934 174.051 36.2662 190.274 41.3248 201.882C41.3268 202.294 41.3645 202.67 41.4368 202.997C43.0904 207.16 44.9066 211.023 46.8782 214.569C52.18 224.205 58.6932 230.968 65.4299 237.179L66.6487 237.522L66.2661 237.18C66.4136 237.266 66.5445 237.4 66.6557 237.578L72.0923 242.196C68.324 241.605 64.7277 240.37 61.3329 238.501C56.0419 235.622 51.0825 231.752 46.4967 226.922L44.91 225.374L44.1542 224.602C43.6672 224.082 43.133 223.684 42.5578 223.412L42.1633 223.301C42.1592 223.233 42.1641 223.156 42.1775 223.075C42.1909 222.995 42.2127 222.913 42.2411 222.835C41.7827 222.313 41.2006 222.119 40.5468 222.269C39.893 222.419 39.1879 222.909 38.4944 223.695C38.3058 223.916 38.1132 224.058 37.9328 224.111C37.7525 224.164 37.5898 224.126 37.4584 224C36.7142 223.483 36.3284 224.422 36.0854 226.178C35.5854 229.251 36.0843 231.396 36.0285 234.053C35.352 244.915 36.2999 253.651 39.6572 259.255C39.5908 260.301 40.0933 260.407 40.3232 260.832C42.2494 263.83 44.4041 266.315 46.7632 268.261C53.9013 274.91 62.0443 278.502 70.3944 281.411C81.0598 285.116 92.0077 287.817 103.01 290.299C110.052 291.883 117.114 293.346 124.133 295.014C133.585 297.277 143.2 298.934 152.833 300.525C159.012 301.56 165.214 302.456 171.454 303.327C181.52 304.732 191.628 305.987 201.821 306.887C209.01 307.519 216.109 308.524 223.343 308.97C234.151 309.627 244.945 310.335 255.904 310.348C266.394 310.356 277.053 309.545 287.952 307.61C296.516 306.083 305.227 303.712 314.051 300.669C322.275 297.836 330.5 294.949 338.989 290.097C343.41 287.769 347.946 284.177 352.449 279.437C354.663 276.972 356.969 274.425 358.931 270.426C359.429 269.627 359.923 268.899 360.412 268.025C363.885 261.869 366.971 255.442 368.571 247.296ZM50.6111 166.609C49.4976 163.352 48.1984 160.35 47.7761 155.987C48.5428 150.912 49.4292 145.816 51.5415 140.957C54.7498 133.531 58.6313 127.245 62.7144 122.863C66.2383 119.178 69.781 116.058 73.2967 113.543C85.2858 104.384 97.0547 98.034 108.734 92.5437C118.846 87.7863 128.821 84.0558 138.697 81.11C153.853 76.7599 168.598 74.7581 182.811 75.121C193.465 75.3557 203.787 77.0138 213.891 79.4417C230.558 83.4628 246.946 88.4171 262.616 95.8963C268.921 98.9161 275.079 102.401 281.014 106.49C289.78 112.622 298.129 119.926 306.027 128.372C318.311 141.598 329.388 157.747 339.134 176.64C339.439 177.231 339.628 178.097 340.22 177.993C346.257 189.85 351.44 203.368 355.712 218.396C356.49 221.035 357.616 223.086 357.526 226.943C357.497 227.398 357.446 227.868 357.375 228.345C356.887 231.104 355.991 233.89 354.819 236.294C353.098 240.207 351.13 243.715 349.029 246.614C346.928 249.514 344.735 251.746 342.578 253.184C340.696 254.472 338.842 255.756 337.017 257.036C332.743 259.012 328.429 261.32 324.201 262.893C311.706 267.635 299.431 270.928 287.435 272.756C287.086 272.775 286.748 272.752 286.42 272.687L285.391 272.397L285.314 272.376L284.438 272.382L281.591 272.935L281.337 272.972L280.853 273.071C280.508 273.136 280.179 273.17 279.843 273.202L279.249 273.233C278.309 273.276 277.368 273.3 276.386 273.547L276.031 273.646C275.721 273.731 275.405 273.853 275.084 274.012C274.93 273.899 274.767 273.811 274.596 273.748L274.18 273.631C272.987 273.44 271.601 273.989 270.566 273.21C269.612 273.899 269.03 273.265 268.259 273.301C267.601 273.55 266.959 273.69 266.34 273.719C265.565 273.771 264.823 273.707 264.114 273.688C263.86 273.617 263.585 273.648 263.315 273.662C259.952 273.619 256.593 273.54 253.239 273.427L247.586 273.227L246.529 273.201L244.535 273.073L243.051 272.944L241.571 272.799L240.545 272.691L239.967 272.637L238.387 272.499L237.713 272.436L236.86 272.358L234.239 271.621C232.963 272.616 232.152 271.395 230.986 271.861C230.949 271.833 230.906 271.821 230.86 271.826L228.347 271.353C227.895 271.876 227.635 271.478 227.299 271.456L224.805 270.971C224.455 271.432 224.237 271.208 223.992 271.157L221.7 270.928L220.509 270.81C216.813 270.438 213.121 270.049 209.401 269.761C207.915 269.896 206.524 269.608 205.263 268.903L189.741 267.407C191.503 266.549 192.736 267.058 194.198 266.133C196.666 265.816 199.133 265.535 201.606 265.202C201.876 265.102 202.154 264.937 202.435 264.713C203.784 264.46 204.953 265.602 206.624 262.821C207.05 262.309 207.473 261.832 207.877 261.368C209.412 259.452 209.516 258.922 208.986 256.859C208.57 254.659 208.494 252.018 208.764 249.139C209.014 243.792 207.836 241.492 205.243 241.738C199.249 242.29 193.231 242.981 187.345 243.203C173.111 243.443 159.341 241.68 146.119 237.924C128.432 233.331 111.346 226.619 94.9259 217.813C84.3892 212.41 74.6792 204.513 65.9278 194.232C59.8123 187.194 54.662 177.906 50.6111 166.609Z" fill="#8DCB04"/>
</svg>
