<svg width="1612" height="526" viewBox="0 0 1612 526" fill="none" xmlns="http://www.w3.org/2000/svg">
<path d="M1610.52 305.735C1607.48 287.974 1599.09 271.564 1586.47 258.699C1581.07 253.242 1576.39 247.124 1572.53 240.49C1567.08 230.352 1559.49 221.524 1550.28 214.62C1547.34 210.425 1543.61 206.842 1539.3 204.07C1516.67 186.916 1492.89 171.324 1468.14 157.404L1466.16 156.732L1463.8 155.959C1422.8 132.825 1380.28 112.475 1336.54 95.0475C1293.67 77.5169 1249.75 62.6608 1205.04 50.5648C1203.59 50.1616 1202.05 50.0273 1200.54 49.7585C1199.6 49.3553 1198.66 48.7842 1197.68 48.4146L1196.94 48.1794L1182.5 44.4501C1175.14 42.5351 1167.78 40.6536 1160.36 38.8394L1156.12 37.8315C1099.5 24.2145 1042.02 14.46 984.071 8.63553C933.944 3.83113 883.817 1.34494 833.656 0.538609C748.42 -0.771681 663.251 -0.200529 578.318 8.09797C534.137 12.3984 490.226 18.8827 446.785 27.2148C393.023 37.6208 339.898 51.0815 287.668 67.5314C285.803 68.5623 283.605 68.8158 281.554 68.2369C279.639 68.2369 278.194 70.0848 276.044 69.648C275.809 72.3022 273.457 72.2014 271.777 72.6046C265.763 74.0492 260.388 78.0137 253.836 77.5097C251.955 77.7113 250.476 79.2904 248.326 78.8536C248.363 79.3312 248.237 79.8072 247.969 80.2039C247.7 80.6006 247.305 80.8944 246.848 81.0374L211.571 93.6364C210.659 93.7868 209.728 93.7868 208.816 93.6364C207.808 94.3419 206.934 95.3162 205.456 94.9803C203.071 98.1384 199.174 98.34 195.915 99.5159C177.067 106.907 158.353 114.635 139.908 123.034L139.572 123.235C138.699 123.706 137.892 124.311 137.052 124.848C135.036 125.621 132.953 126.326 130.971 127.133L129.594 127.67C106.035 138.056 83.1549 149.917 61.0891 163.183C41.3676 175.513 24.1322 190.06 11.5333 210.219C-0.0577334 228.865 -3.41745 248.116 3.77234 269.35C4.07472 270.29 4.41069 271.197 4.74666 272.138C6.20135 275.867 7.8844 279.502 9.78624 283.024C10.8949 285.039 12.0372 287.089 13.3475 289.172C13.3475 290.045 13.3475 290.818 14.3891 291.188C14.3891 291.49 14.3891 291.793 14.3891 292.095C14.3891 292.397 14.557 292.901 14.6242 293.304C17.9839 298.378 21.8476 303.384 24.7034 308.557C44.8617 344.137 71.1011 373.602 107.89 392.55C108.41 393.315 109.045 393.995 109.771 394.566C122.256 401.446 135.084 407.68 148.207 413.246C183.618 428.399 220.81 437.571 258.305 445.6H264.117L262 445.164C262.759 445.247 263.505 445.428 264.218 445.701L293.985 451.446C276.597 452.319 259.168 451.904 241.842 450.203C214.881 447.618 188.152 443.014 161.881 436.428L152.944 434.379L148.643 433.337C145.845 432.626 142.99 432.165 140.11 431.96H138.228C138.125 431.835 138.051 431.689 138.01 431.533C137.969 431.376 137.964 431.212 137.993 431.053C135.318 430.322 132.504 430.265 129.801 430.886C127.099 431.507 124.592 432.788 122.505 434.614C121.945 435.123 121.272 435.489 120.541 435.682C119.81 435.875 119.043 435.889 118.305 435.723C114.374 435.152 113.837 437.1 114.945 440.494C116.558 446.474 121.43 450.203 124.487 455.176C135.003 475.737 150.054 491.494 171.859 500.162C172.867 502.144 175.219 502.077 176.764 502.749C189.003 507.317 201.616 510.814 214.46 513.198C254.273 521.832 294.724 524.251 335.242 525.293C386.982 526.603 438.721 525.898 490.427 524.755C523.521 524.016 556.547 523.042 589.64 522.471C634.223 521.732 678.773 519.783 723.323 517.7C751.914 516.39 780.438 514.811 809.097 513.164C855.326 510.51 901.556 507.554 947.719 503.892C980.274 501.305 1012.9 499.457 1045.42 496.5C1094 492.065 1142.58 487.731 1191.03 482.02C1237.39 476.543 1283.49 469.454 1329.25 460.148C1365.2 452.824 1400.74 443.853 1435.95 433.573C1468.78 423.997 1501.53 414.321 1533.01 400.849C1549.66 394.204 1565.24 385.148 1579.24 373.971C1585.96 368.226 1592.99 362.279 1596.68 353.813C1597.89 352.066 1599.17 350.453 1600.24 348.572C1607.94 335.301 1613.58 321.728 1610.52 305.735ZM105.068 322.064C96.0974 316.587 86.623 311.682 79.3324 303.787C76.4094 293.943 73.9904 283.998 77.283 273.852C82.2278 258.357 91.565 244.631 104.161 234.341C115.152 225.641 126.928 217.981 139.337 211.462C180.93 188.145 225.043 170.171 269.828 153.843C308.6 139.698 348.043 127.536 388.023 116.886C449.594 100.858 512.267 89.4152 575.529 82.6501C622.901 77.5097 670.576 75.1915 718.25 74.4188C796.901 73.1757 875.485 73.814 954.035 79.5256C985.65 81.8438 1017.2 85.1027 1048.51 89.6047C1094.87 96.4245 1140.85 105.643 1186.26 117.222C1256.99 135.398 1326.02 159.644 1392.58 189.691C1394.66 190.631 1396.58 192.143 1399.06 191.639C1440.48 210.54 1480.2 232.976 1517.76 258.699C1524.48 263.201 1532.01 266.427 1536.41 273.65C1536.84 274.513 1537.2 275.412 1537.48 276.338C1538.76 281.726 1538.26 287.379 1536.07 292.464C1533.33 300.646 1529 308.202 1523.32 314.696C1517.64 321.19 1510.72 326.492 1502.98 330.295C1496.26 333.677 1489.66 337.037 1483.19 340.374C1466.76 346.287 1450.57 352.839 1433.84 357.979C1384.52 373.342 1334.36 385.894 1283.62 395.574C1282.11 395.792 1280.58 395.926 1279.05 395.977H1274.15H1273.78L1269.92 396.448L1258.02 398.968L1256.95 399.169L1254.93 399.606C1253.49 399.908 1252.08 400.143 1250.63 400.379L1248.04 400.748C1243.94 401.319 1239.81 401.857 1235.78 402.831L1234.34 403.201C1233.07 403.522 1231.83 403.914 1230.61 404.377C1229.78 404.247 1228.95 404.168 1228.12 404.141H1226.14C1220.63 404.41 1215.19 406.157 1209.64 405.25C1206.28 407.031 1202.92 406.157 1199.56 406.628C1196.96 407.435 1194.3 408.031 1191.6 408.408C1188.24 408.912 1184.88 409.181 1181.72 409.517C1180.51 409.517 1179.34 409.719 1178.16 409.887C1163.24 411.566 1148.3 413.179 1133.34 414.725L1108.11 417.312L1103.41 417.816L1094.44 418.622L1087.72 419.159L1081 419.663L1076.33 419.999L1073.71 420.201L1066.55 420.772L1063.49 421.007L1059.63 421.31H1047.13C1042.73 423.829 1037.62 421.982 1033.06 423.46C1032.86 423.427 1032.65 423.427 1032.45 423.46L1020.76 423.897C1019.41 425.106 1017.77 424.501 1016.26 424.636L1004.63 425.039C1003.66 426.08 1002.41 425.778 1001.27 425.812L990.857 426.584L985.448 426.988C968.65 428.231 951.851 429.44 935.052 430.851C928.654 431.88 922.149 432.072 915.7 431.422L845.247 436.764C851.967 434.245 858.048 434.547 863.356 432.061C873.872 430.179 884.422 428.365 894.937 426.45C896.005 426.122 897.031 425.671 897.995 425.106C903.639 423.93 910.224 425.442 914.155 419.395C915.398 418.219 916.675 417.11 917.884 416.035C922.285 411.667 922.084 410.626 917.179 407.064C912.605 403.191 908.984 398.316 906.596 392.819C901.052 382.74 892.989 379.078 881.834 380.892C856.032 385.058 830.296 389.493 804.561 392.987C741.956 400.886 678.913 404.813 615.812 404.746C531.94 405.46 448.085 401.916 364.572 394.13C311.29 389.592 258.561 379.985 207.102 365.438C171.326 355.545 137.016 340.961 105.068 322.064Z" fill="#8DCB04"/>
</svg>
