<svg width="61" height="42" viewBox="0 0 61 42" fill="none" xmlns="http://www.w3.org/2000/svg">
<path d="M60.9822 16.6347C60.8952 16.6439 60.8093 16.6572 60.7233 16.6612C59.5607 16.7174 58.398 16.7704 57.2354 16.8286C55.7744 16.9011 54.3125 16.9786 52.8516 17.0521C51.7456 17.1072 50.6395 17.1541 49.5335 17.2143L44.9839 17.4429L41.6173 17.6062C41.5041 17.6032 41.3909 17.609 41.2786 17.6236C40.9278 17.697 40.6538 17.5746 40.3687 17.3695C33.5524 12.5011 26.7325 7.63684 19.9088 2.77666C19.831 2.72053 19.7542 2.66237 19.6834 2.6093C19.6834 2.58889 19.6834 2.57971 19.6834 2.57665C19.6834 2.57358 19.6996 2.56542 19.7056 2.56746L60.8325 16.5327C60.8841 16.551 60.9336 16.5735 60.9852 16.5929L60.9822 16.6347Z" fill="#171717"/>
<path d="M19.7147 39.027C19.7764 38.979 19.8371 38.925 19.9018 38.8821C26.7915 33.9518 33.6815 29.0219 40.5719 24.0924C40.7001 23.9952 40.8588 23.9481 41.0187 23.9597C42.9235 24.0546 44.8292 24.1403 46.735 24.2301C48.4301 24.3097 50.1256 24.391 51.8214 24.474L57.9491 24.7679C58.9662 24.8169 59.9823 24.87 60.9993 24.92C61.0002 24.9281 61.0002 24.9363 60.9993 24.9444C60.9993 24.9516 60.9933 24.9628 60.9882 24.9638L19.741 39.074L19.7147 39.027Z" fill="#171717"/>
<path d="M17.0406 12.0487C18.2118 12.0504 19.3711 12.2858 20.4519 12.7415C21.5326 13.1971 22.5134 13.8638 23.3379 14.7035C24.1624 15.5431 24.8143 16.5389 25.2561 17.6338C25.6979 18.7286 25.9209 19.9008 25.9122 21.083C25.892 26.0211 21.8813 30.0142 16.9618 29.9938C12.0796 29.9734 8.11743 25.9241 8.1417 20.9799C8.14973 18.6048 9.09148 16.3301 10.7601 14.6555C12.4286 12.9809 14.6876 12.0433 17.0406 12.0487ZM23.2078 21.0289C23.2102 19.7924 22.8491 18.5829 22.1702 17.5536C21.4914 16.5243 20.5252 15.7214 19.3941 15.2465C18.263 14.7716 17.0177 14.6461 15.8159 14.8858C14.6141 15.1256 13.5098 15.7198 12.6427 16.5933C11.7755 17.4668 11.1847 18.5803 10.9448 19.7929C10.7049 21.0055 10.8268 22.2627 11.2951 23.4053C11.7633 24.548 12.5569 25.5247 13.5753 26.212C14.5938 26.8992 15.7913 27.266 17.0163 27.266C17.8291 27.2675 18.6342 27.1073 19.3856 26.7945C20.137 26.4817 20.82 26.0225 21.3955 25.4432C21.9709 24.8638 22.4276 24.1757 22.7395 23.4181C23.0513 22.6605 23.2122 21.8483 23.2128 21.0279L23.2078 21.0289Z" fill="#171717"/>
<path d="M2.20302 11.6977H0.0202472C0.0141811 11.6201 0.00508202 11.5497 0.00407101 11.4793C2.69705e-05 10.3282 2.69705e-05 9.17708 0.00710404 8.02599C0.0258328 7.4213 0.135254 6.82297 0.331638 6.25138C1.37197 3.00933 3.58305 1.04695 6.82738 0.218327C7.47203 0.0636218 8.13328 -0.00939455 8.79582 0.000965964H10.7936V2.27357H10.5246C9.85334 2.27357 9.18101 2.24703 8.51173 2.28071C6.2784 2.39194 4.48992 3.342 3.22919 5.22988C2.69601 6.04389 2.36261 6.9744 2.2566 7.94435C2.24985 8.02546 2.24715 8.10686 2.24851 8.18824C2.23773 9.26586 2.22728 10.3435 2.21717 11.4211C2.21616 11.5089 2.20807 11.5966 2.20302 11.6977Z" fill="#171717"/>
<path d="M2.69705e-05 30.3019H2.20403C2.20908 30.404 2.21717 30.4969 2.21717 30.5928C2.22728 31.5469 2.24649 32.5021 2.24245 33.4573C2.23499 34.7997 2.67991 36.1049 3.50419 37.1585C4.58294 38.5811 6.03172 39.3923 7.77975 39.6485C8.20494 39.6982 8.63268 39.7224 9.0607 39.7209C9.54498 39.7322 10.0303 39.7209 10.5155 39.7209H10.7946V41.9782C10.7268 41.9844 10.6652 41.9946 10.6035 41.9946C9.93219 41.9946 9.26088 42.0068 8.59058 41.9946C4.84984 41.918 1.13539 39.426 0.170888 35.14C0.0559186 34.6478 -0.00142709 34.1436 2.69705e-05 33.6379C0.0121591 32.6174 2.69705e-05 31.5969 2.69705e-05 30.5765V30.3019Z" fill="#171717"/>
</svg>
