<svg width="110" height="75" viewBox="0 0 110 75" fill="none" xmlns="http://www.w3.org/2000/svg">
<path d="M109.968 29.7049C109.811 29.7213 109.656 29.7449 109.501 29.7522C107.405 29.8525 105.308 29.9472 103.211 30.0511C100.577 30.1805 97.9406 30.319 95.3062 30.4502C93.3117 30.5486 91.3172 30.6324 89.3227 30.7399L81.1186 31.1481L75.0475 31.4397C74.8435 31.4343 74.6393 31.4447 74.4368 31.4706C73.8041 31.6018 73.3101 31.3832 72.796 31.0169C60.5044 22.3234 48.2061 13.6372 35.9012 4.95832C35.7608 4.8581 35.6223 4.75423 35.4946 4.65947C35.4946 4.62302 35.4946 4.60662 35.4946 4.60115C35.4946 4.59569 35.5238 4.58111 35.5347 4.58475L109.698 29.5226C109.791 29.5554 109.88 29.5955 109.973 29.6301L109.968 29.7049Z" fill="#8DCB04"/>
<path d="M35.5512 69.6911C35.6624 69.6054 35.7718 69.5089 35.8884 69.4323C48.3125 60.6283 60.7371 51.8249 73.1624 43.0221C73.3937 42.8486 73.6798 42.7645 73.9682 42.7852C77.403 42.9546 80.8396 43.1077 84.2762 43.2681C87.333 43.4102 90.3904 43.5554 93.4484 43.7036L104.498 44.2284C106.333 44.3159 108.165 44.4106 109.999 44.4999C110 44.5145 110 44.5291 109.999 44.5437C109.999 44.5564 109.988 44.5765 109.979 44.5783L35.5986 69.7749L35.5512 69.6911Z" fill="#8DCB04"/>
<path d="M30.729 21.5155C32.841 21.5186 34.9315 21.939 36.8804 22.7526C38.8293 23.5662 40.598 24.7569 42.0848 26.2562C43.5716 27.7555 44.7471 29.5338 45.5438 31.4889C46.3405 33.444 46.7426 35.5372 46.727 37.6482C46.6905 46.4662 39.4581 53.5967 30.5868 53.5603C21.7829 53.5238 14.638 46.293 14.6817 37.4641C14.6962 33.2229 16.3945 29.161 19.4034 26.1705C22.4123 23.1801 26.4858 21.5059 30.729 21.5155ZM41.8501 37.5516C41.8544 35.3435 41.2033 33.1837 39.9791 31.3457C38.7549 29.5076 37.0127 28.0738 34.973 27.2258C32.9333 26.3778 30.6877 26.1537 28.5205 26.5819C26.3533 27.01 24.3618 28.0711 22.7982 29.6309C21.2346 31.1908 20.1691 33.1792 19.7365 35.3445C19.3039 37.5099 19.5237 39.7548 20.3681 41.7952C21.2125 43.8357 22.6436 45.5799 24.4801 46.8071C26.3166 48.0343 28.4761 48.6893 30.6852 48.6893C32.1509 48.692 33.6027 48.4058 34.9577 47.8473C36.3127 47.2888 37.5442 46.4688 38.582 45.4343C39.6197 44.3997 40.4433 43.1709 41.0056 41.818C41.568 40.4651 41.858 39.0147 41.8592 37.5498L41.8501 37.5516Z" fill="#8DCB04"/>
<path d="M3.97266 20.8887H0.0365113C0.0255725 20.7502 0.0091643 20.6244 0.00734117 20.4987C4.86354e-05 18.4432 4.86354e-05 16.3876 0.0128106 14.3321C0.0465837 13.2523 0.2439 12.1839 0.598037 11.1632C2.47404 5.3738 6.46123 1.86956 12.3117 0.38987C13.4742 0.11361 14.6666 -0.016776 15.8613 0.00172493H19.4638V4.05994H18.9789C17.7683 4.05994 16.5559 4.01256 15.349 4.07269C11.3217 4.27132 8.09659 5.96786 5.82314 9.33908C4.86165 10.7927 4.26044 12.4543 4.06928 14.1863C4.05711 14.3312 4.05224 14.4765 4.0547 14.6219C4.03525 16.5462 4.01641 18.4705 3.99818 20.3948C3.99636 20.5516 3.98177 20.7083 3.97266 20.8887Z" fill="#8DCB04"/>
<path d="M4.86353e-05 54.1106H3.97448C3.9836 54.2928 3.99818 54.4587 3.99818 54.63C4.01641 56.3338 4.05105 58.0394 4.04376 59.7451C4.0303 62.1424 4.83262 64.473 6.31903 66.3545C8.26431 68.8948 10.8769 70.3435 14.0291 70.8009C14.7958 70.8897 15.5671 70.9329 16.339 70.9302C17.2123 70.9503 18.0874 70.9302 18.9625 70.9302H19.4656V74.9611C19.3435 74.9721 19.2323 74.9903 19.1211 74.9903C17.9105 74.9903 16.7 75.0121 15.4912 74.9903C8.74562 74.8536 2.04743 70.4036 0.308158 62.75C0.100837 61.871 -0.00257345 60.9707 4.86353e-05 60.0676C0.0219262 58.2454 4.86353e-05 56.4231 4.86353e-05 54.6008V54.1106Z" fill="#8DCB04"/>
</svg>
